<?xml version="1.0" standalone="no"?>
<!DOCTYPE svg PUBLIC "-//W3C//DTD SVG 20010904//EN"
 "http://www.w3.org/TR/2001/REC-SVG-20010904/DTD/svg10.dtd">
<svg version="1.0" xmlns="http://www.w3.org/2000/svg"
 width="108.000000pt" height="133.000000pt" viewBox="0 0 108.000000 133.000000"
 preserveAspectRatio="xMidYMid meet">

<g transform="translate(0.000000,133.000000) scale(0.100000,-0.100000)"
fill="#000000" stroke="none">
<path d="M347 1269 c-38 -11 -86 -28 -108 -39 l-39 -20 0 -143 c0 -117 -4
-153 -20 -200 -27 -76 -27 -188 0 -264 11 -32 20 -70 20 -85 0 -62 66 -274 75
-243 2 6 6 45 10 87 l7 77 46 -30 47 -30 5 -117 5 -116 48 -18 47 -18 0 120 0
120 49 0 48 0 7 -52 c3 -29 6 -81 6 -115 0 -70 7 -75 60 -48 l30 16 0 114 0
114 33 17 c17 9 39 23 48 30 15 13 17 10 23 -32 3 -26 6 -68 7 -93 l1 -46 28
60 c17 35 38 106 49 170 12 61 28 135 36 165 20 66 14 146 -15 222 -17 44 -20
77 -20 196 l0 143 -45 20 c-137 61 -350 77 -488 38z m233 -39 c21 0 27 -14 10
-25 -5 -3 -10 -16 -10 -28 0 -19 -5 -22 -40 -22 -31 0 -39 3 -35 14 3 8 -2 22
-11 32 -16 17 -15 19 8 28 14 5 29 18 33 28 6 16 8 16 16 -4 5 -14 17 -23 29
-23z m-156 -30 c8 0 13 -12 12 -30 -1 -24 -5 -30 -18 -26 -10 2 -21 0 -24 -5
-9 -16 -24 -10 -24 10 0 11 -5 21 -11 23 -7 2 -2 15 12 30 19 22 25 24 32 12
4 -8 14 -14 21 -14z m303 -10 c17 -1 17 -1 1 -14 -10 -7 -18 -21 -18 -30 0
-13 -4 -15 -17 -8 -10 5 -23 7 -29 5 -7 -2 -14 10 -16 27 -3 19 0 30 8 30 6 0
17 7 25 16 12 14 14 14 21 -5 4 -12 15 -21 25 -21z m-277 -120 c0 -5 -14 -17
-31 -25 -16 -9 -47 -31 -67 -48 -20 -18 -54 -40 -75 -50 l-39 -17 20 27 c29
40 51 59 113 93 56 31 79 37 79 20z m110 -33 c19 -9 28 -26 38 -67 10 -39 11
-55 3 -58 -7 -2 -33 -21 -59 -42 l-48 -37 -69 14 c-38 8 -73 19 -77 26 -4 7
-8 30 -8 53 0 32 6 46 33 71 17 17 41 35 52 41 27 15 104 15 135 -1z m186 -19
c59 -41 83 -73 86 -118 3 -33 1 -35 -41 -49 -34 -11 -48 -11 -60 -2 -9 6 -37
23 -63 39 -42 25 -48 32 -61 85 -12 52 -12 59 2 67 34 20 88 11 137 -22z
m-286 -189 c33 -8 37 -14 58 -76 l22 -68 -38 -55 c-33 -49 -41 -55 -77 -58
-22 -2 -57 1 -77 7 -32 10 -39 18 -57 67 -32 84 -27 109 31 171 32 33 48 35
138 12z m408 -29 c18 -36 22 -54 17 -90 -11 -75 -30 -109 -71 -126 -20 -8 -38
-13 -41 -11 -2 3 -19 29 -36 58 l-32 54 20 72 c19 68 22 73 55 82 53 14 63 10
88 -39z m-635 -54 c15 -11 27 -27 27 -35 0 -9 11 -42 24 -74 21 -49 22 -63 13
-95 -14 -48 -14 -48 -36 -28 -34 31 -73 134 -76 202 -3 68 -4 68 48 30z m664
-68 c-3 -8 -6 -5 -6 6 -1 11 2 17 5 13 3 -3 4 -12 1 -19z m-170 -49 c32 -55
27 -84 -21 -137 -33 -35 -37 -37 -110 -40 l-75 -4 -31 48 c-17 27 -28 54 -26
60 2 6 23 36 47 68 l42 57 74 -3 74 -3 26 -46z m153 -14 c-7 -20 -14 -34 -17
-31 -3 2 1 20 8 40 17 46 25 38 9 -9z m-575 -135 c3 -5 2 -10 -4 -10 -5 0 -13
5 -16 10 -3 6 -2 10 4 10 5 0 13 -4 16 -10z m381 -52 c14 -14 11 -17 -32 -32
-66 -22 -225 -20 -224 3 1 3 20 15 43 26 53 25 189 27 213 3z"/>
<path d="M32 753 c4 -333 5 -351 27 -411 71 -193 255 -312 483 -312 246 0 436
137 493 357 12 45 15 127 15 385 l0 328 -45 0 -45 0 0 -310 c0 -185 -4 -330
-11 -362 -19 -94 -72 -190 -138 -251 -84 -77 -148 -101 -272 -102 -90 0 -99 2
-171 38 -90 44 -147 102 -190 193 -50 107 -58 169 -58 497 l0 297 -46 0 -45 0
3 -347z"/>
</g>
</svg>
